# Blender v2.78 (sub 0) OBJ File: 'wavefield text.blend'
# www.blender.org
mtllib wavefield text.mtl
o Text.015_Mesh.024
v 3.382370 3.042257 15.937601
v 5.195681 3.042257 15.937601
v 4.969005 3.570256 15.937601
v 3.595980 3.570256 15.937601
v 3.382370 3.042257 13.404601
v 5.195681 3.042257 13.404601
v 4.969005 3.570256 13.404678
v 3.595980 3.570256 13.404601
v 9.326684 5.928257 15.937599
v 7.573471 5.928257 15.937599
v 5.847558 1.800283 15.937599
v 7.777778 1.836257 15.937599
v 8.020506 2.364256 15.937599
v 6.083605 2.364256 15.937599
v 6.522831 3.636256 15.937599
v 8.495225 3.636256 15.937599
v 8.718976 4.164257 15.937599
v 6.522831 4.164257 15.937599
v 7.204742 5.400257 15.937599
v 9.100270 5.400257 15.937599
v 9.326684 5.928257 13.404599
v 7.573471 5.928257 13.404676
v 5.847558 1.800283 13.404599
v 7.777778 1.836257 13.404599
v 8.020506 2.364257 13.404599
v 6.083605 2.364257 13.404599
v 6.522831 3.636257 13.404599
v 8.495225 3.636257 13.404599
v 8.718976 4.164257 13.404599
v 6.522831 4.164257 13.404599
v 7.204742 5.400257 13.404599
v 9.100270 5.400257 13.404599
v 7.581914 5.928257 15.937601
v 6.999914 5.928257 15.937601
v 5.775914 3.054256 15.937601
v 4.545913 5.928257 15.937601
v 3.957913 5.928257 15.937601
v 5.727913 1.800256 15.937601
v 5.847914 1.800256 15.937601
v 7.581914 5.928257 13.404601
v 6.999914 5.928257 13.404678
v 5.775914 3.054257 13.404601
v 4.545913 5.928257 13.404601
v 3.957913 5.928257 13.404601
v 5.727913 1.800256 13.404601
v 5.847914 1.800256 13.404601
v 4.544301 5.928257 15.937601
v 3.962301 5.928257 15.937601
v 2.846301 3.108257 15.937601
v 1.706300 5.928257 15.937601
v 1.148300 5.928257 15.937601
v 0.014300 3.108257 15.937601
v -1.113699 5.928257 15.937601
v -1.701700 5.928257 15.937601
v -0.045700 1.800256 15.937601
v 0.068300 1.800256 15.937601
v 1.424300 5.148257 15.937601
v 2.768301 1.800256 15.937601
v 2.882301 1.800256 15.937601
v 4.544301 5.928257 13.404601
v 3.962301 5.928257 13.404601
v 2.846301 3.108257 13.404601
v 1.706300 5.928257 13.404601
v 1.148300 5.928257 13.404678
v 0.014300 3.108257 13.404601
v -1.113699 5.928257 13.404678
v -1.701700 5.928257 13.404678
v -0.045700 1.800256 13.404601
v 0.068300 1.800256 13.404601
v 1.424300 5.148257 13.404601
v 2.768301 1.800256 13.404678
v 2.882301 1.800256 13.404601
v 21.361908 5.928257 15.937601
v 18.715908 5.928257 15.937601
v 18.715908 5.370257 15.937601
v 20.083927 5.370257 15.937601
v 16.982441 1.817711 15.937601
v 17.617374 1.833573 15.937601
v 21.361908 5.928257 13.404601
v 18.715908 5.928257 13.404601
v 18.715908 5.370257 13.404601
v 20.083927 5.370257 13.404601
v 16.982441 1.817711 13.404601
v 17.617374 1.833573 13.404601
v 19.460308 5.928257 15.937601
v 18.705914 5.928257 15.937601
v 16.983154 1.825966 15.937601
v 17.613281 1.826952 15.937601
v 19.460308 5.928257 13.404601
v 18.705914 5.928257 13.404678
v 16.983154 1.828178 13.404601
v 17.613281 1.840304 13.404601
v 10.286178 5.928257 15.937601
v 7.981419 1.825966 15.937601
v 8.552177 1.826952 15.937601
v 10.286178 5.928257 13.404601
v 7.981419 1.828178 13.404601
v 8.552177 1.840304 13.404601
v 12.070673 5.928257 15.937601
v 8.560542 1.825288 15.937601
v 8.791560 2.364256 15.937601
v 9.266821 3.636256 15.937601
v 11.239215 3.636256 15.937601
v 11.462967 4.164257 15.937601
v 9.266821 4.164257 15.937601
v 9.948732 5.400257 15.937601
v 11.844260 5.400257 15.937601
v 12.070673 5.928257 13.404601
v 8.560542 1.825288 13.404601
v 8.791560 2.364257 13.404601
v 9.266821 3.636257 13.404601
v 11.239215 3.636257 13.404601
v 11.462967 4.164257 13.404601
v 9.266821 4.164257 13.404601
v 9.948732 5.400257 13.404601
v 11.844260 5.400257 13.404601
v 10.304605 5.928257 15.937601
v 9.722607 5.928257 15.937601
v 7.999847 1.825966 15.937601
v 8.570606 1.826952 15.937601
v 10.304605 5.928257 13.404601
v 9.722607 5.928257 13.404678
v 7.999847 1.828178 13.404601
v 8.570606 1.840304 13.404601
v 13.012690 5.928257 15.937601
v 12.430690 5.928257 15.937601
v 10.707930 1.825966 15.937601
v 11.278690 1.826952 15.937601
v 13.012690 5.928257 13.404601
v 12.430690 5.928257 13.404678
v 10.707930 1.828178 13.404601
v 11.278690 1.840304 13.404601
v 15.553355 5.928257 15.937601
v 13.231356 5.928257 15.937601
v 12.043224 1.825288 15.937601
v 14.004450 1.836257 15.937601
v 14.247178 2.364256 15.937601
v 12.274242 2.364256 15.937601
v 12.749503 3.636256 15.937601
v 14.721896 3.636256 15.937601
v 14.945648 4.164257 15.937601
v 12.749503 4.164257 15.937601
v 13.431415 5.400257 15.937601
v 15.326942 5.400257 15.937601
v 15.553355 5.928257 13.404601
v 13.231356 5.928257 13.404678
v 12.043224 1.825288 13.404601
v 14.004450 1.836257 13.404601
v 14.247178 2.364257 13.404601
v 12.274242 2.364257 13.404601
v 12.749503 3.636257 13.404601
v 14.721896 3.636257 13.404601
v 14.945648 4.164257 13.404601
v 12.749503 4.164257 13.404601
v 13.431415 5.400257 13.404601
v 15.326942 5.400257 13.404601
v 13.787288 5.928257 15.937601
v 13.205288 5.928257 15.937601
v 11.482529 1.825966 15.937601
v 12.053288 1.826952 15.937601
v 13.787288 5.928257 13.404601
v 13.205288 5.928257 13.404678
v 11.482529 1.828178 13.404601
v 12.053288 1.840304 13.404601
v 14.798482 1.825288 15.937601
v 16.759708 1.836257 15.937601
v 17.002434 2.364256 15.937601
v 15.029499 2.364256 15.937601
v 15.504760 3.636256 15.937601
v 14.798482 1.825288 13.404601
v 16.759708 1.836257 13.404601
v 17.002434 2.364257 13.404601
v 15.029499 2.364257 13.404601
v 15.504760 3.636257 13.404601
v 15.504760 4.164257 13.404601
v 16.542545 5.928257 15.937601
v 15.960546 5.928257 15.937601
v 14.237786 1.825966 15.937601
v 14.808546 1.826952 15.937601
v 16.542545 5.928257 13.404601
v 15.960546 5.928257 13.404678
v 14.237786 1.828178 13.404601
v 14.808546 1.840304 13.404601
vn 0.0000 0.0000 1.0000
vn 0.0001 -0.0000 -1.0000
vn 0.0000 0.0001 -1.0000
vn -0.0000 0.0002 -1.0000
vn 0.0000 0.0000 -1.0000
vn 0.0000 -1.0000 0.0000
vn -0.0001 0.0001 -1.0000
vn -0.0001 0.0000 -1.0000
vn -0.0001 -0.0001 -1.0000
vn -0.0007 -0.0000 -1.0000
vn 0.0250 -0.9997 0.0000
vn -1.0000 0.0000 0.0000
vn 0.5540 0.3742 0.7436
vn 0.0000 0.6222 0.7828
vn 0.0000 0.6223 -0.7828
vn 0.5542 0.3743 -0.7434
vn 0.0000 -0.8031 0.5958
vn 0.5093 -0.7541 0.4147
vn 0.5093 -0.7541 -0.4147
vn 0.0000 -0.8031 -0.5958
vn 0.6912 0.4578 0.5591
vn 0.4411 -0.6661 0.6014
vn 0.4411 -0.6661 -0.6014
vn 0.6912 0.4578 -0.5591
vn 0.6923 0.4564 0.5590
vn 0.4396 -0.6668 0.6017
vn 0.4396 -0.6668 -0.6017
vn 0.6923 0.4564 -0.5590
vn -0.6891 -0.4602 0.5597
vn -0.6931 -0.4620 -0.5533
vn 0.4312 -0.6701 -0.6042
vn 0.4313 -0.6702 0.6039
vn 0.6987 0.4478 0.5580
vn 0.4355 -0.6666 0.6048
vn 0.4355 -0.6666 -0.6048
vn 0.6986 0.4477 -0.5580
vn 0.0000 0.7071 0.7071
vn 0.0000 0.7071 -0.7071
vn 0.0000 0.6240 0.7814
vn 0.0000 0.6241 -0.7813
vn 0.0000 -0.7071 0.7071
vn 0.0000 -0.7071 -0.7071
vn -0.4328 -0.6692 0.6039
vn -0.7380 -0.3164 0.5959
vn -0.7380 -0.3164 -0.5959
vn -0.4328 -0.6692 -0.6039
vn -0.6895 -0.4577 0.5613
vn -0.6934 -0.4596 -0.5549
vn -0.0002 0.2197 0.9756
vn -0.4405 0.6664 0.6015
vn -0.4406 0.6664 -0.6015
vn -0.0002 0.2197 -0.9756
vn 0.5722 0.2449 0.7826
vn 0.8266 0.0090 -0.5627
vn -0.4481 -0.6626 0.6001
vn -0.6863 0.4642 0.5599
vn -0.6863 0.4642 -0.5599
vn -0.4481 -0.6626 -0.6001
vn -0.4480 -0.6626 0.6001
vn -0.0003 -0.2083 0.9781
vn -0.0003 -0.2083 -0.9781
vn -0.4482 -0.6627 -0.5999
vn 0.4476 -0.6628 0.6002
vn 0.4475 -0.6628 -0.6003
vn 0.4472 0.6631 0.6003
vn -0.0007 0.2067 0.9784
vn -0.0008 0.2067 -0.9784
vn 0.4471 0.6631 -0.6003
vn 0.4469 -0.6632 0.6003
vn 0.4469 -0.6632 -0.6003
vn -0.4478 0.6627 0.6001
vn -0.4479 0.6628 -0.6001
vn 0.4485 0.6624 0.6000
vn 0.0002 0.2072 0.9783
vn 0.0001 0.2072 -0.9783
vn 0.4485 0.6624 -0.6000
vn -0.5773 0.5773 0.5773
vn 0.7654 0.3372 0.5481
vn 0.7654 0.3372 -0.5481
vn -0.5773 0.5773 -0.5773
vn -0.7571 -0.3555 0.5480
vn -0.2119 -0.0963 0.9725
vn -0.2119 -0.0963 -0.9725
vn -0.7571 -0.3555 -0.5480
vn 0.3224 -0.7077 0.6286
vn 0.3224 -0.7077 -0.6286
vn -0.7388 0.3103 0.5982
vn -0.5750 0.2415 0.7816
vn -0.5751 0.2416 -0.7815
vn -0.7432 0.3122 -0.5917
vn 0.0071 -0.6238 0.7815
vn 0.0095 -0.8307 0.5566
vn 0.0096 -0.8332 -0.5529
vn 0.0071 -0.6180 -0.7862
vn -0.4424 0.6655 -0.6011
vn -0.4423 0.6655 0.6012
vn 0.7367 0.4857 -0.4704
vn 0.0000 -0.8430 0.5378
vn 0.0000 -0.9882 -0.1534
vn -0.7437 0.3124 -0.5910
vn 0.7382 -0.3126 -0.5978
vn 0.5708 -0.2417 -0.7847
vn -0.7389 0.3103 0.5981
vn 0.6913 0.4580 0.5588
vn 0.4452 -0.6651 0.5995
vn 0.4443 -0.6609 -0.6048
vn 0.6909 0.4577 -0.5595
vn -0.4423 0.6655 -0.6011
vn -0.6868 -0.4625 0.5607
vn -0.6892 -0.4634 -0.5570
vn 0.6997 0.4484 -0.5562
vn 0.5500 0.3640 0.7516
vn 0.5510 0.3646 -0.7506
vn -0.5006 0.7576 0.4188
vn -0.5006 0.7577 -0.4186
vn 0.6986 0.4478 0.5580
vn 0.6986 0.4478 -0.5580
vn 0.0000 0.6223 0.7827
vn 0.0000 0.6223 -0.7827
vn 0.5728 -0.2426 0.7830
vn 0.6866 0.4637 0.5599
vn 0.0000 0.7976 -0.6032
vn -0.4498 0.6617 -0.5998
vn -0.4498 0.6617 0.5998
vn 0.7382 -0.3134 -0.5972
vn 0.7380 -0.3133 0.5976
vn 0.7387 -0.3128 0.5971
vn 0.4408 -0.1847 -0.8784
vn 0.7392 -0.3098 -0.5979
vn 0.5390 -0.2258 0.8114
vn 0.5748 -0.2409 0.7820
usemtl None
s off
f 1//1 3//1 4//1
f 1//1 2//1 3//1
f 5//2 8//2 7//2
f 5//3 7//3 6//3
f 19//1 9//1 10//1
f 19//1 20//1 9//1
f 15//1 17//1 18//1
f 15//1 16//1 17//1
f 11//1 13//1 14//1
f 11//1 12//1 13//1
f 31//4 22//4 21//4
f 31//5 21//5 32//5
f 27//5 30//5 29//5
f 27//5 29//5 28//5
f 23//5 25//5 24//5
f 20//6 19//6 31//6 32//6
f 38//1 36//1 37//1
f 38//1 35//1 36//1
f 35//1 33//1 34//1
f 35//1 39//1 33//1
f 38//1 39//1 35//1
f 45//5 44//5 43//5
f 45//5 43//5 42//5
f 42//7 41//7 40//7
f 42//5 40//5 46//5
f 45//5 42//5 46//5
f 55//1 53//1 54//1
f 55//1 52//1 53//1
f 52//1 50//1 51//1
f 52//1 57//1 50//1
f 57//1 49//1 50//1
f 49//1 47//1 48//1
f 49//1 59//1 47//1
f 52//1 56//1 57//1
f 58//1 49//1 57//1
f 55//1 56//1 52//1
f 58//1 59//1 49//1
f 68//5 67//5 66//5
f 68//8 66//8 65//8
f 65//7 64//7 63//7
f 65//5 63//5 70//5
f 70//5 63//5 62//5
f 62//5 60//5 72//5
f 65//5 70//5 69//5
f 71//9 70//9 62//9
f 68//5 65//5 69//5
f 71//10 62//10 72//10
f 60//5 62//5 61//5
f 75//1 73//1 74//1
f 75//1 76//1 73//1
f 76//1 78//1 73//1
f 77//1 78//1 76//1
f 81//5 80//5 79//5
f 81//5 79//5 82//5
f 82//5 79//5 84//5
f 83//5 82//5 84//5
f 78//11 77//11 83//11 84//11
f 76//6 75//6 81//6 82//6
f 75//12 74//12 80//12 81//12
f 87//1 85//1 86//1
f 87//1 88//1 85//1
f 91//7 90//7 89//7
f 91//5 89//5 92//5
f 94//1 95//1 93//1
f 97//5 96//5 98//5
f 93//1 106//1 99//1
f 106//1 107//1 99//1
f 102//1 104//1 105//1
f 102//1 103//1 104//1
f 115//5 108//5 116//5
f 111//5 114//5 113//5
f 111//5 113//5 112//5
f 119//1 117//1 118//1
f 119//1 120//1 117//1
f 123//7 122//7 121//7
f 127//1 125//1 126//1
f 127//1 128//1 125//1
f 131//7 130//7 129//7
f 131//5 129//5 132//5
f 143//1 133//1 134//1
f 143//1 144//1 133//1
f 139//1 141//1 142//1
f 139//1 140//1 141//1
f 135//1 137//1 138//1
f 135//1 136//1 137//1
f 155//3 146//3 145//3
f 155//5 145//5 156//5
f 151//5 154//5 153//5
f 151//5 153//5 152//5
f 147//5 149//5 148//5
f 144//6 143//6 155//6 156//6
f 140//6 139//6 151//6 152//6
f 159//1 157//1 158//1
f 159//1 160//1 157//1
f 163//7 162//7 161//7
f 163//5 161//5 164//5
f 165//1 167//1 168//1
f 165//1 166//1 167//1
f 170//5 172//5 171//5
f 178//1 176//1 177//1
f 178//1 179//1 176//1
f 182//7 181//7 180//7
f 182//5 180//5 183//5
f 46//5 26//5 25//5
f 164//5 150//5 149//5
f 172//5 170//5 173//5
s 1
f 4//13 3//14 7//15 8//16
f 2//17 1//18 5//19 6//20
f 17//21 16//22 28//23 29//24
f 9//25 20//26 32//27 21//28
f 178//29 182//30 171//31 166//32
f 13//33 12//34 24//35 25//36
f 18//37 17//21 29//24 30//38
f 14//39 13//33 25//36 26//40
f 16//22 15//41 27//42 28//23
f 38//43 37//44 44//45 45//46
f 159//47 163//48 148//31 136//32
f 35//49 34//50 41//51 42//52
f 36//53 35//49 42//52 43//54
f 21//28 41//51 34//50 9//25
f 55//55 54//56 67//57 68//58
f 58//59 57//60 70//61 71//62
f 59//63 58//59 71//62 72//64
f 50//65 49//66 62//67 63//68
f 57//60 56//69 69//70 70//61
f 51//71 50//65 63//68 64//72
f 53//73 52//74 65//75 66//76
f 56//69 55//55 68//58 69//70
f 52//74 51//71 64//72 65//75
f 54//56 53//73 66//76 67//57
f 74//77 73//78 79//79 80//80
f 77//81 76//82 82//83 83//84
f 73//78 78//85 84//86 79//79
f 87//87 86//88 90//89 91//90
f 95//91 94//92 97//93 98//94
f 122//95 118//96 99//25 108//97
f 104//21 103//22 112//23 113//24
f 99//25 107//26 116//27 108//97
f 107//26 106//98 115//99 116//27
f 105//37 104//21 113//24 114//38
f 103//22 102//41 111//42 112//23
f 123//100 121//101 124//102
f 119//103 118//96 122//95 123//100
f 125//104 128//105 132//106 129//107
f 126//96 125//104 129//107 130//108
f 127//109 126//96 130//108 131//110
f 141//21 140//22 152//23 153//24
f 133//25 144//26 156//27 145//28
f 137//33 136//32 148//31 149//111
f 142//37 141//21 153//24 154//38
f 138//112 137//33 149//111 150//113
f 134//114 133//25 145//28 146//115
f 146//115 163//48 159//47 134//114
f 24//35 12//34 38//43 45//46
f 167//116 166//32 171//31 172//117
f 168//118 167//116 172//117 173//119
f 176//104 179//120 183//102 180//107
f 177//96 176//104 180//107 181//108
f 178//29 177//96 181//108 182//30
f 47//121 60//122 61//123 48//124
f 48//124 61//123 62//67 49//66
f 161//125 157//126 138//112 150//113
f 120//120 124//102 121//101 117//127
f 46//128 40//129 10//130 39//131
f 4//13 8//16 43//54 47//121
f 5//19 1//18 59//63 72//64
f 128//105 127//109 131//110 132//106
l 88 92
l 100 101
l 100 109
l 101 110
l 160 164
l 174 175
l 169 174
